<svg data-v-d3f97b9e="" xmlns="http://www.w3.org/2000/svg" viewBox="0 0 391.40073781732167 163"><!----><!----><!----><g data-v-d3f97b9e="" id="0ef6b468-6dec-41ed-9efc-edf0e7a11439" fill="#361C00" transform="matrix(5.836575485636349,0,0,5.836575485636349,-3.735413669031459,88.23346633409301)"><path d="M8.70 10.01L8.70 10.01L8.70 10.01Q8.70 11.35 7.65 12.08L7.65 12.08L7.65 12.08Q6.61 12.81 4.72 12.81L4.72 12.81L4.72 12.81Q1.20 12.81 0.64 10.36L0.64 10.36L1.90 10.11L1.90 10.11Q2.12 10.98 2.83 11.39L2.83 11.39L2.83 11.39Q3.54 11.79 4.76 11.79L4.76 11.79L4.76 11.79Q6.03 11.79 6.72 11.36L6.72 11.36L6.72 11.36Q7.40 10.92 7.40 10.08L7.40 10.08L7.40 10.08Q7.40 9.61 7.19 9.32L7.19 9.32L7.19 9.32Q6.97 9.02 6.58 8.83L6.58 8.83L6.58 8.83Q6.19 8.64 5.65 8.51L5.65 8.51L5.65 8.51Q5.11 8.38 4.46 8.23L4.46 8.23L4.46 8.23Q3.32 7.98 2.72 7.72L2.72 7.72L2.72 7.72Q2.13 7.47 1.79 7.16L1.79 7.16L1.79 7.16Q1.45 6.85 1.27 6.43L1.27 6.43L1.27 6.43Q1.09 6.02 1.09 5.48L1.09 5.48L1.09 5.48Q1.09 4.24 2.03 3.57L2.03 3.57L2.03 3.57Q2.98 2.90 4.74 2.90L4.74 2.90L4.74 2.90Q6.38 2.90 7.25 3.40L7.25 3.40L7.25 3.40Q8.12 3.90 8.47 5.11L8.47 5.11L7.18 5.34L7.18 5.34Q6.97 4.57 6.38 4.23L6.38 4.23L6.38 4.23Q5.78 3.88 4.73 3.88L4.73 3.88L4.73 3.88Q3.58 3.88 2.97 4.27L2.97 4.27L2.97 4.27Q2.36 4.65 2.36 5.41L2.36 5.41L2.36 5.41Q2.36 5.85 2.59 6.14L2.59 6.14L2.59 6.14Q2.83 6.43 3.27 6.63L3.27 6.63L3.27 6.63Q3.72 6.84 5.04 7.13L5.04 7.13L5.04 7.13Q5.49 7.23 5.93 7.34L5.93 7.34L5.93 7.34Q6.37 7.44 6.77 7.59L6.77 7.59L6.77 7.59Q7.18 7.74 7.53 7.94L7.53 7.94L7.53 7.94Q7.88 8.13 8.14 8.42L8.14 8.42L8.14 8.42Q8.40 8.71 8.55 9.10L8.55 9.10L8.55 9.10Q8.70 9.49 8.70 10.01ZM16.54 8.97L16.54 8.97L16.54 8.97Q16.54 10.91 15.68 11.86L15.68 11.86L15.68 11.86Q14.83 12.81 13.20 12.81L13.20 12.81L13.20 12.81Q11.58 12.81 10.75 11.82L10.75 11.82L10.75 11.82Q9.93 10.83 9.93 8.97L9.93 8.97L9.93 8.97Q9.93 5.14 13.24 5.14L13.24 5.14L13.24 5.14Q14.94 5.14 15.74 6.07L15.74 6.07L15.74 6.07Q16.54 7.01 16.54 8.97ZM15.24 8.97L15.24 8.97L15.24 8.97Q15.24 7.44 14.79 6.74L14.79 6.74L14.79 6.74Q14.33 6.05 13.26 6.05L13.26 6.05L13.26 6.05Q12.18 6.05 11.70 6.76L11.70 6.76L11.70 6.76Q11.22 7.46 11.22 8.97L11.22 8.97L11.22 8.97Q11.22 10.43 11.69 11.17L11.69 11.17L11.69 11.17Q12.17 11.90 13.19 11.90L13.19 11.90L13.19 11.90Q14.29 11.90 14.77 11.19L14.77 11.19L14.77 11.19Q15.24 10.48 15.24 8.97ZM19.30 12.67L18.07 12.67L18.07 2.53L19.30 2.53L19.30 12.67ZM23.06 12.81L23.06 12.81L23.06 12.81Q21.95 12.81 21.39 12.22L21.39 12.22L21.39 12.22Q20.83 11.63 20.83 10.61L20.83 10.61L20.83 10.61Q20.83 9.46 21.58 8.85L21.58 8.85L21.58 8.85Q22.34 8.23 24.02 8.19L24.02 8.19L25.68 8.16L25.68 7.76L25.68 7.76Q25.68 6.86 25.30 6.47L25.30 6.47L25.30 6.47Q24.92 6.08 24.10 6.08L24.10 6.08L24.10 6.08Q23.27 6.08 22.89 6.36L22.89 6.36L22.89 6.36Q22.52 6.64 22.44 7.25L22.44 7.25L21.16 7.14L21.16 7.14Q21.47 5.14 24.12 5.14L24.12 5.14L24.12 5.14Q25.52 5.14 26.22 5.78L26.22 5.78L26.22 5.78Q26.93 6.42 26.93 7.63L26.93 7.63L26.93 10.81L26.93 10.81Q26.93 11.36 27.07 11.64L27.07 11.64L27.07 11.64Q27.21 11.92 27.62 11.92L27.62 11.92L27.62 11.92Q27.79 11.92 28.02 11.87L28.02 11.87L28.02 12.63L28.02 12.63Q27.56 12.74 27.07 12.74L27.07 12.74L27.07 12.74Q26.39 12.74 26.08 12.38L26.08 12.38L26.08 12.38Q25.76 12.02 25.72 11.26L25.72 11.26L25.68 11.26L25.68 11.26Q25.21 12.11 24.59 12.46L24.59 12.46L24.59 12.46Q23.96 12.81 23.06 12.81ZM23.34 11.89L23.34 11.89L23.34 11.89Q24.02 11.89 24.55 11.58L24.55 11.58L24.55 11.58Q25.07 11.27 25.38 10.74L25.38 10.74L25.38 10.74Q25.68 10.20 25.68 9.63L25.68 9.63L25.68 9.02L24.34 9.05L24.34 9.05Q23.47 9.06 23.02 9.23L23.02 9.23L23.02 9.23Q22.57 9.39 22.33 9.73L22.33 9.73L22.33 9.73Q22.09 10.08 22.09 10.63L22.09 10.63L22.09 10.63Q22.09 11.23 22.42 11.56L22.42 11.56L22.42 11.56Q22.74 11.89 23.34 11.89ZM30.22 12.67L28.99 12.67L28.99 7L28.99 7Q28.99 6.22 28.95 5.28L28.95 5.28L30.11 5.28L30.11 5.28Q30.17 6.54 30.17 6.79L30.17 6.79L30.19 6.79L30.19 6.79Q30.49 5.84 30.87 5.49L30.87 5.49L30.87 5.49Q31.25 5.14 31.95 5.14L31.95 5.14L31.95 5.14Q32.20 5.14 32.45 5.21L32.45 5.21L32.45 6.34L32.45 6.34Q32.20 6.27 31.79 6.27L31.79 6.27L31.79 6.27Q31.03 6.27 30.63 6.93L30.63 6.93L30.63 6.93Q30.22 7.59 30.22 8.82L30.22 8.82L30.22 12.67ZM39.85 9.24L34.57 9.24L34.57 9.24Q34.57 10.51 35.10 11.20L35.10 11.20L35.10 11.20Q35.62 11.89 36.63 11.89L36.63 11.89L36.63 11.89Q37.43 11.89 37.92 11.57L37.92 11.57L37.92 11.57Q38.40 11.25 38.57 10.75L38.57 10.75L39.65 11.06L39.65 11.06Q38.99 12.81 36.63 12.81L36.63 12.81L36.63 12.81Q34.99 12.81 34.14 11.83L34.14 11.83L34.14 11.83Q33.28 10.86 33.28 8.93L33.28 8.93L33.28 8.93Q33.28 7.10 34.14 6.12L34.14 6.12L34.14 6.12Q34.99 5.14 36.59 5.14L36.59 5.14L36.59 5.14Q39.85 5.14 39.85 9.07L39.85 9.07L39.85 9.24ZM34.58 8.29L38.58 8.29L38.58 8.29Q38.47 7.12 37.98 6.59L37.98 6.59L37.98 6.59Q37.49 6.05 36.57 6.05L36.57 6.05L36.57 6.05Q35.67 6.05 35.15 6.65L35.15 6.65L35.15 6.65Q34.62 7.25 34.58 8.29L34.58 8.29ZM46.94 12.67L45.72 12.67L45.72 7.98L45.72 7.98Q45.72 6.91 45.42 6.50L45.42 6.50L45.42 6.50Q45.13 6.09 44.37 6.09L44.37 6.09L44.37 6.09Q43.58 6.09 43.12 6.69L43.12 6.69L43.12 6.69Q42.66 7.29 42.66 8.39L42.66 8.39L42.66 12.67L41.44 12.67L41.44 6.86L41.44 6.86Q41.44 5.56 41.40 5.28L41.40 5.28L42.56 5.28L42.56 5.28Q42.57 5.31 42.57 5.46L42.57 5.46L42.57 5.46Q42.58 5.61 42.59 5.81L42.59 5.81L42.59 5.81Q42.60 6.00 42.62 6.54L42.62 6.54L42.64 6.54L42.64 6.54Q43.03 5.76 43.54 5.45L43.54 5.45L43.54 5.45Q44.06 5.14 44.80 5.14L44.80 5.14L44.80 5.14Q45.64 5.14 46.13 5.48L46.13 5.48L46.13 5.48Q46.61 5.81 46.81 6.54L46.81 6.54L46.83 6.54L46.83 6.54Q47.21 5.80 47.75 5.47L47.75 5.47L47.75 5.47Q48.30 5.14 49.07 5.14L49.07 5.14L49.07 5.14Q50.19 5.14 50.70 5.75L50.70 5.75L50.70 5.75Q51.21 6.36 51.21 7.75L51.21 7.75L51.21 12.67L49.99 12.67L49.99 7.98L49.99 7.98Q49.99 6.91 49.70 6.50L49.70 6.50L49.70 6.50Q49.40 6.09 48.64 6.09L48.64 6.09L48.64 6.09Q47.83 6.09 47.38 6.69L47.38 6.69L47.38 6.69Q46.94 7.29 46.94 8.39L46.94 8.39L46.94 12.67ZM59.29 9.24L54.02 9.24L54.02 9.24Q54.02 10.51 54.54 11.20L54.54 11.20L54.54 11.20Q55.07 11.89 56.08 11.89L56.08 11.89L56.08 11.89Q56.88 11.89 57.36 11.57L57.36 11.57L57.36 11.57Q57.85 11.25 58.02 10.75L58.02 10.75L59.10 11.06L59.10 11.06Q58.43 12.81 56.08 12.81L56.08 12.81L56.08 12.81Q54.44 12.81 53.58 11.83L53.58 11.83L53.58 11.83Q52.73 10.86 52.73 8.93L52.73 8.93L52.73 8.93Q52.73 7.10 53.58 6.12L53.58 6.12L53.58 6.12Q54.44 5.14 56.03 5.14L56.03 5.14L56.03 5.14Q59.29 5.14 59.29 9.07L59.29 9.07L59.29 9.24ZM54.03 8.29L58.02 8.29L58.02 8.29Q57.92 7.12 57.43 6.59L57.43 6.59L57.43 6.59Q56.94 6.05 56.01 6.05L56.01 6.05L56.01 6.05Q55.12 6.05 54.60 6.65L54.60 6.65L54.60 6.65Q54.07 7.25 54.03 8.29L54.03 8.29ZM62.75 12.81L62.75 12.81L62.75 12.81Q61.63 12.81 61.07 12.22L61.07 12.22L61.07 12.22Q60.51 11.63 60.51 10.61L60.51 10.61L60.51 10.61Q60.51 9.46 61.27 8.85L61.27 8.85L61.27 8.85Q62.02 8.23 63.70 8.19L63.70 8.19L65.37 8.16L65.37 7.76L65.37 7.76Q65.37 6.86 64.98 6.47L64.98 6.47L64.98 6.47Q64.60 6.08 63.78 6.08L63.78 6.08L63.78 6.08Q62.95 6.08 62.58 6.36L62.58 6.36L62.58 6.36Q62.20 6.64 62.13 7.25L62.13 7.25L60.84 7.14L60.84 7.14Q61.15 5.14 63.81 5.14L63.81 5.14L63.81 5.14Q65.20 5.14 65.91 5.78L65.91 5.78L65.91 5.78Q66.61 6.42 66.61 7.63L66.61 7.63L66.61 10.81L66.61 10.81Q66.61 11.36 66.75 11.64L66.75 11.64L66.75 11.64Q66.90 11.92 67.30 11.92L67.30 11.92L67.30 11.92Q67.48 11.92 67.70 11.87L67.70 11.87L67.70 12.63L67.70 12.63Q67.24 12.74 66.75 12.74L66.75 12.74L66.75 12.74Q66.07 12.74 65.76 12.38L65.76 12.38L65.76 12.38Q65.45 12.02 65.41 11.26L65.41 11.26L65.37 11.26L65.37 11.26Q64.89 12.11 64.27 12.46L64.27 12.46L64.27 12.46Q63.64 12.81 62.75 12.81ZM63.03 11.89L63.03 11.89L63.03 11.89Q63.70 11.89 64.23 11.58L64.23 11.58L64.23 11.58Q64.76 11.27 65.06 10.74L65.06 10.74L65.06 10.74Q65.37 10.20 65.37 9.63L65.37 9.63L65.37 9.02L64.02 9.05L64.02 9.05Q63.15 9.06 62.70 9.23L62.70 9.23L62.70 9.23Q62.25 9.39 62.02 9.73L62.02 9.73L62.02 9.73Q61.78 10.08 61.78 10.63L61.78 10.63L61.78 10.63Q61.78 11.23 62.10 11.56L62.10 11.56L62.10 11.56Q62.43 11.89 63.03 11.89Z"></path></g><linearGradient data-v-d3f97b9e="" gradientTransform="rotate(25)" id="158ab498-616d-49e1-90ad-818b51d6e1cc" x1="0%" y1="0%" x2="100%" y2="0%"><stop data-v-d3f97b9e="" offset="0%" style="stop-color: rgb(235, 76, 0); stop-opacity: 1;"></stop><stop data-v-d3f97b9e="" offset="100%" style="stop-color: rgb(242, 169, 0); stop-opacity: 1;"></stop></linearGradient><g data-v-d3f97b9e="" id="d8f08c14-0a37-47f5-98b9-d211edb70899" transform="matrix(1.4634146341463414,0,0,1.4634146341463414,122.95427006046947,-28.036585365853654)" stroke="none" fill="url(#158ab498-616d-49e1-90ad-818b51d6e1cc)"><path d="M78.8 47l-9.4-16.3c-4.1-7-11.3-11.2-19.4-11.2-8.1 0-15.4 4.2-19.4 11.2L21.2 47c-4.1 7-4.1 15.6 0 22.6 4.1 7 11.3 11.4 19.4 11.4h18.8c8.1 0 15.4-4.4 19.4-11.4 4.1-7 4.1-15.6 0-22.6zm-10.4 2c3.3 5.8 3.3 12.6 0 18.4-1.9 3.3-4.6 5.8-7.8 7.3 1.7-1.5 3.1-3.3 4.3-5.3 4.1-7 4.1-15.4 0-22.4l-3-5.2c.9.1 1.7.2 2.6.4l3.9 6.8zm-7.8-11.3c-8.1 0-15.4 4.2-19.4 11.2l-2.5 4.4c-.6-.5-1.1-1.1-1.6-1.7l4-6.9c3.3-5.8 9.3-9.2 15.9-9.2 3.9 0 7.5 1.2 10.6 3.3-2.3-.7-4.6-1.1-7-1.1zm-6.4 11.1c1.7 2.9 2.5 6.2 2.5 9.2h-5.6c-3.4 0-6.5-.8-9.3-2.4l2.8-4.7c1.7-2.9 4-5.3 6.8-6.8l2.8 4.7zm-25-4.3c.5 2.3 1.3 4.4 2.5 6.4C35.8 57.9 43 62 51.1 62h5.1c-.2 1-.4 2-.7 2h-8c-6.7 0-12.6-3.2-15.9-9-1.9-3.3-2.7-6.9-2.4-10.5zm34.5-11.9c-2.1-.7-4.4-1-6.7-1-8.1 0-15.4 4.2-19.4 11.2l-3 5.2c-.4-.8-.7-1.6-1-2.4l3.9-6.8c3.3-5.8 9.3-9.2 15.9-9.2 3.9-.1 7.4 1 10.3 3zm-38 18.2C26.2 53 27 55 28.2 57c4.1 7 11.3 11 19.4 11h6c-.5 1-1 2-1.6 3h-7.9c-6.7 0-12.6-3.7-15.9-9.5-1.9-3.2-2.8-7.1-2.5-10.7zm32 18.6c4.1-7 4.1-15.4 0-22.4l-2.5-4.4c.7-.2 1.5-.4 2.2-.5l4 6.9c3.3 5.8 3.3 12.6 0 18.4-1.9 3.4-4.8 5.9-8.1 7.5 1.6-1.6 3.2-3.4 4.4-5.5zm-7.7-46c3.8 0 7.3 1.1 10.3 3.1-2.2-.7-4.4-1-6.8-1-8.1 0-15.4 4.2-19.4 11.2L32.7 39c.1-2.5.7-5 1.9-7.4 3.5-5.1 9.1-8.2 15.4-8.2zm-25.4 44c-1.9-3.2-2.7-6.9-2.5-10.4.5 2.2 1.3 4.6 2.5 6.6C28.7 70.6 36 75 44.1 75h2.7c-2.2 1-4.7 1.6-7.4 1.8-6.2-.4-11.6-4-14.8-9.4zm50.8 0c-1.9 3.3-4.6 5.8-7.8 7.3 1.6-1.5 3.1-3.3 4.3-5.3 4.1-7 4.1-15.4 0-22.4l-1.3-2.3c2.1 1.4 4 3.2 5.4 5.4 2.7 5.4 2.5 11.8-.6 17.3z"></path></g><!----></svg>